<?xml version="1.0" encoding="UTF-8"?>
<!DOCTYPE svg PUBLIC "-//W3C//DTD SVG 1.1//EN" "http://www.w3.org/Graphics/SVG/1.1/DTD/svg11.dtd">
<svg xmlns="http://www.w3.org/2000/svg" version="1.1" width="800px" height="735px" style="shape-rendering:geometricPrecision; text-rendering:geometricPrecision; image-rendering:optimizeQuality; fill-rule:evenodd; clip-rule:evenodd" xmlns:xlink="http://www.w3.org/1999/xlink">
<g><path style="opacity:0.991" fill="#125922" d="M 368.5,-0.5 C 381.5,-0.5 394.5,-0.5 407.5,-0.5C 448.858,5.51286 485.192,22.3462 516.5,50C 532.845,65.5023 547.512,82.3357 560.5,100.5C 560.167,100.833 559.833,101.167 559.5,101.5C 535.94,88.2068 510.94,79.2068 484.5,74.5C 483.571,73.6851 482.571,72.8518 481.5,72C 482.654,71.0862 482.487,70.2529 481,69.5C 480.667,69.8333 480.333,70.1667 480,70.5C 478.442,68.6411 476.609,67.1411 474.5,66C 475.654,65.0862 475.487,64.2529 474,63.5C 472.927,64.2797 471.76,64.113 470.5,63C 470.619,61.7188 470.119,60.5521 469,59.5C 467.16,60.8331 466.66,60.6665 467.5,59C 466.747,57.513 465.914,57.3463 465,58.5C 463.333,56.8333 461.667,55.1667 460,53.5C 459.667,53.8333 459.333,54.1667 459,54.5C 458.558,52.3215 457.558,51.6548 456,52.5C 455.292,49.7324 453.792,48.8991 451.5,50C 452.654,49.0862 452.487,48.2529 451,47.5C 447.547,48.1082 444.881,46.7749 443,43.5C 441.984,44.6341 441.317,44.3008 441,42.5C 439.984,43.6341 439.317,43.3008 439,41.5C 437.984,42.6341 437.317,42.3008 437,40.5C 435.984,41.6341 435.317,41.3008 435,39.5C 433.984,40.6341 433.317,40.3008 433,38.5C 431.94,38.2545 430.773,38.2545 429.5,38.5C 427.866,38.032 426.7,37.032 426,35.5C 424.984,36.6341 424.317,36.3008 424,34.5C 422.497,34.8346 421.164,34.8346 420,34.5C 419.676,32.4311 418.842,32.0977 417.5,33.5C 416.803,31.6155 415.803,31.2822 414.5,32.5C 412.566,32.0995 411.066,31.0995 410,29.5C 407.588,30.4748 405.588,29.8081 404,27.5C 403.439,28.0219 402.772,28.3552 402,28.5C 400.096,27.6495 398.096,26.6495 396,25.5C 394.286,26.9255 392.953,26.5922 392,24.5C 389.538,24.9123 387.205,24.9123 385,24.5C 384.055,24.0946 383.388,23.428 383,22.5C 381.755,22.4615 380.422,22.7948 379,23.5C 378.055,23.0946 377.388,22.428 377,21.5C 375.629,21.2432 374.129,21.5765 372.5,22.5C 370.971,22.4712 369.804,21.8045 369,20.5C 367.181,20.9251 365.014,21.2584 362.5,21.5C 360.307,21.6738 358.473,21.0071 357,19.5C 349.667,20.8333 342.333,20.8333 335,19.5C 333.991,20.6582 332.658,21.3248 331,21.5C 328.657,21.2214 326.657,20.8881 325,20.5C 324.044,21.8941 322.711,22.5607 321,22.5C 319.134,21.7525 317.467,21.4192 316,21.5C 315.612,22.428 314.945,23.0946 314,23.5C 312.578,22.7948 311.245,22.4615 310,22.5C 309.612,23.428 308.945,24.0946 308,24.5C 306.012,24.4754 304.012,24.4754 302,24.5C 297.57,26.6148 292.903,28.2814 288,29.5C 287.098,29.2568 286.265,28.9234 285.5,28.5C 311.067,12.8862 338.733,3.2195 368.5,-0.5 Z"/></g>
<g><path style="opacity:0.996" fill="#126025" d="M 484.5,74.5 C 476.514,73.901 468.514,73.5676 460.5,73.5C 451.837,70.0716 443.67,65.4049 436,59.5C 435.667,59.8333 435.333,60.1667 435,60.5C 428.361,56.0556 421.694,52.3889 415,49.5C 412.816,50.1081 410.816,49.4414 409,47.5C 408.667,47.8333 408.333,48.1667 408,48.5C 365.811,33.5751 323.811,33.9084 282,49.5C 247.83,61.2899 219.497,82.6233 197,113.5C 196.536,112.906 196.369,112.239 196.5,111.5C 214.59,85.9101 235.924,63.4101 260.5,44C 268.471,38.1855 276.804,33.0189 285.5,28.5C 286.265,28.9234 287.098,29.2568 288,29.5C 292.903,28.2814 297.57,26.6148 302,24.5C 304.012,24.4754 306.012,24.4754 308,24.5C 308.945,24.0946 309.612,23.428 310,22.5C 311.245,22.4615 312.578,22.7948 314,23.5C 314.945,23.0946 315.612,22.428 316,21.5C 317.467,21.4192 319.134,21.7525 321,22.5C 322.711,22.5607 324.044,21.8941 325,20.5C 326.657,20.8881 328.657,21.2214 331,21.5C 332.658,21.3248 333.991,20.6582 335,19.5C 342.333,20.8333 349.667,20.8333 357,19.5C 358.473,21.0071 360.307,21.6738 362.5,21.5C 365.014,21.2584 367.181,20.9251 369,20.5C 369.804,21.8045 370.971,22.4712 372.5,22.5C 374.129,21.5765 375.629,21.2432 377,21.5C 377.388,22.428 378.055,23.0946 379,23.5C 380.422,22.7948 381.755,22.4615 383,22.5C 383.388,23.428 384.055,24.0946 385,24.5C 387.205,24.9123 389.538,24.9123 392,24.5C 392.953,26.5922 394.286,26.9255 396,25.5C 398.096,26.6495 400.096,27.6495 402,28.5C 402.772,28.3552 403.439,28.0219 404,27.5C 405.588,29.8081 407.588,30.4748 410,29.5C 411.066,31.0995 412.566,32.0995 414.5,32.5C 415.803,31.2822 416.803,31.6155 417.5,33.5C 418.842,32.0977 419.676,32.4311 420,34.5C 421.164,34.8346 422.497,34.8346 424,34.5C 424.317,36.3008 424.984,36.6341 426,35.5C 426.7,37.032 427.866,38.032 429.5,38.5C 430.773,38.2545 431.94,38.2545 433,38.5C 433.317,40.3008 433.984,40.6341 435,39.5C 435.317,41.3008 435.984,41.6341 437,40.5C 437.317,42.3008 437.984,42.6341 439,41.5C 439.317,43.3008 439.984,43.6341 441,42.5C 441.317,44.3008 441.984,44.6341 443,43.5C 444.881,46.7749 447.547,48.1082 451,47.5C 452.487,48.2529 452.654,49.0862 451.5,50C 453.792,48.8991 455.292,49.7324 456,52.5C 457.558,51.6548 458.558,52.3215 459,54.5C 459.333,54.1667 459.667,53.8333 460,53.5C 461.667,55.1667 463.333,56.8333 465,58.5C 465.914,57.3463 466.747,57.513 467.5,59C 466.66,60.6665 467.16,60.8331 469,59.5C 470.119,60.5521 470.619,61.7188 470.5,63C 471.76,64.113 472.927,64.2797 474,63.5C 475.487,64.2529 475.654,65.0862 474.5,66C 476.609,67.1411 478.442,68.6411 480,70.5C 480.333,70.1667 480.667,69.8333 481,69.5C 482.487,70.2529 482.654,71.0862 481.5,72C 482.571,72.8518 483.571,73.6851 484.5,74.5 Z"/></g>
<g><path style="opacity:0.999" fill="#126629" d="M 460.5,73.5 C 446.384,73.0554 432.384,74.0554 418.5,76.5C 418.631,75.7611 418.464,75.0944 418,74.5C 416.57,74.3062 415.07,74.3062 413.5,74.5C 411.082,73.5428 408.916,72.2095 407,70.5C 406.667,70.8333 406.333,71.1667 406,71.5C 403.49,70.8913 401.49,69.558 400,67.5C 398.097,67.6938 396.263,67.6938 394.5,67.5C 393.808,66.9747 393.308,66.3081 393,65.5C 391.097,65.6938 389.263,65.6938 387.5,65.5C 386.808,64.9747 386.308,64.3081 386,63.5C 384.286,64.9255 382.953,64.5922 382,62.5C 379.733,63.9348 377.733,63.6015 376,61.5C 373.733,62.9348 371.733,62.6015 370,60.5C 367.408,61.9817 365.075,61.6483 363,59.5C 352.61,60.7686 341.943,60.7686 331,59.5C 328.582,61.6801 325.916,62.0135 323,60.5C 322.261,61.5742 321.261,62.2409 320,62.5C 318.578,61.7948 317.245,61.4615 316,61.5C 315.047,63.5922 313.714,63.9255 312,62.5C 310.604,64.5268 308.938,64.8602 307,63.5C 306.047,65.5922 304.714,65.9255 303,64.5C 299.471,66.2607 295.971,67.9274 292.5,69.5C 242.924,87.2478 209.091,121.581 191,172.5C 185.748,189.261 182.915,206.428 182.5,224C 182.573,230.63 182.573,236.63 182.5,242C 183.804,242.804 184.471,243.971 184.5,245.5C 183.577,247.129 183.243,248.629 183.5,250C 185.3,252.094 186.3,254.594 186.5,257.5C 186.392,258.442 186.059,259.275 185.5,260C 187.592,260.953 187.925,262.286 186.5,264C 188.592,264.953 188.925,266.286 187.5,268C 188.756,268.417 189.423,269.25 189.5,270.5C 185.675,279.484 181.341,288.151 176.5,296.5C 175.067,295.167 173.733,293.667 172.5,292C 172.833,291.667 173.167,291.333 173.5,291C 172.35,288.538 171.017,286.204 169.5,284C 169.833,283.667 170.167,283.333 170.5,283C 163.662,264.986 160.328,245.32 160.5,224C 160.452,215.556 161.119,207.223 162.5,199C 162.167,197.333 161.833,195.667 161.5,194C 163.66,189.254 165.327,184.254 166.5,179C 166.167,178 165.833,177 165.5,176C 169.375,166.231 173.375,156.398 177.5,146.5C 177.137,145.817 176.804,145.15 176.5,144.5C 182.38,132.969 189.047,121.969 196.5,111.5C 196.369,112.239 196.536,112.906 197,113.5C 219.497,82.6233 247.83,61.2899 282,49.5C 323.811,33.9084 365.811,33.5751 408,48.5C 408.333,48.1667 408.667,47.8333 409,47.5C 410.816,49.4414 412.816,50.1081 415,49.5C 421.694,52.3889 428.361,56.0556 435,60.5C 435.333,60.1667 435.667,59.8333 436,59.5C 443.67,65.4049 451.837,70.0716 460.5,73.5 Z"/></g>
<g><path style="opacity:0.998" fill="#106e2d" d="M 418.5,76.5 C 409.187,78.8283 399.854,81.1616 390.5,83.5C 386.699,83.0636 382.866,81.7303 379,79.5C 377.286,80.9255 375.953,80.5922 375,78.5C 371.752,79.4451 368.419,79.4451 365,78.5C 363.674,78.2451 362.674,77.5784 362,76.5C 352,77.8333 342,77.8333 332,76.5C 331.044,77.8941 329.711,78.5607 328,78.5C 325.13,78.9087 322.13,78.9087 319,78.5C 317.604,80.5268 315.938,80.8602 314,79.5C 313.047,81.5922 311.714,81.9255 310,80.5C 309.692,81.3081 309.192,81.9747 308.5,82.5C 306.737,82.6938 304.903,82.6938 303,82.5C 301.412,84.8081 299.412,85.4748 297,84.5C 290.31,88.1 283.143,91.7666 275.5,95.5C 274.914,95.2907 274.414,94.9574 274,94.5C 271.891,97.6478 269.058,99.9811 265.5,101.5C 264.914,101.291 264.414,100.957 264,100.5C 262.881,101.552 262.381,102.719 262.5,104C 260.667,105.167 258.833,106.333 257,107.5C 256.086,106.346 255.253,106.513 254.5,108C 254.833,108.333 255.167,108.667 255.5,109C 254.109,110.65 252.609,111.15 251,110.5C 249.513,111.253 249.346,112.086 250.5,113C 249.531,114.758 248.364,115.258 247,114.5C 245.513,115.253 245.346,116.086 246.5,117C 245.531,118.758 244.364,119.258 243,118.5C 241.513,119.253 241.346,120.086 242.5,121C 215.821,147.182 201.487,181.348 199.5,223.5C 200.356,232.156 201.023,240.823 201.5,249.5C 197.749,256.671 193.749,263.671 189.5,270.5C 189.423,269.25 188.756,268.417 187.5,268C 188.925,266.286 188.592,264.953 186.5,264C 187.925,262.286 187.592,260.953 185.5,260C 186.059,259.275 186.392,258.442 186.5,257.5C 186.3,254.594 185.3,252.094 183.5,250C 183.243,248.629 183.577,247.129 184.5,245.5C 184.471,243.971 183.804,242.804 182.5,242C 182.573,236.63 182.573,230.63 182.5,224C 182.915,206.428 185.748,189.261 191,172.5C 209.091,121.581 242.924,87.2478 292.5,69.5C 295.971,67.9274 299.471,66.2607 303,64.5C 304.714,65.9255 306.047,65.5922 307,63.5C 308.938,64.8602 310.604,64.5268 312,62.5C 313.714,63.9255 315.047,63.5922 316,61.5C 317.245,61.4615 318.578,61.7948 320,62.5C 321.261,62.2409 322.261,61.5742 323,60.5C 325.916,62.0135 328.582,61.6801 331,59.5C 341.943,60.7686 352.61,60.7686 363,59.5C 365.075,61.6483 367.408,61.9817 370,60.5C 371.733,62.6015 373.733,62.9348 376,61.5C 377.733,63.6015 379.733,63.9348 382,62.5C 382.953,64.5922 384.286,64.9255 386,63.5C 386.308,64.3081 386.808,64.9747 387.5,65.5C 389.263,65.6938 391.097,65.6938 393,65.5C 393.308,66.3081 393.808,66.9747 394.5,67.5C 396.263,67.6938 398.097,67.6938 400,67.5C 401.49,69.558 403.49,70.8913 406,71.5C 406.333,71.1667 406.667,70.8333 407,70.5C 408.916,72.2095 411.082,73.5428 413.5,74.5C 415.07,74.3062 416.57,74.3062 418,74.5C 418.464,75.0944 418.631,75.7611 418.5,76.5 Z"/></g>
<g><path style="opacity:0.996" fill="#107330" d="M 390.5,83.5 C 380.91,87.4804 371.243,91.4804 361.5,95.5C 333.273,91.8464 306.273,97.3464 280.5,112C 244.104,135.225 223.438,166.892 218.5,207C 218.147,213.206 217.147,219.206 215.5,225C 216.094,225.464 216.761,225.631 217.5,225.5C 212.526,233.795 207.192,241.795 201.5,249.5C 201.023,240.823 200.356,232.156 199.5,223.5C 201.487,181.348 215.821,147.182 242.5,121C 241.346,120.086 241.513,119.253 243,118.5C 244.364,119.258 245.531,118.758 246.5,117C 245.346,116.086 245.513,115.253 247,114.5C 248.364,115.258 249.531,114.758 250.5,113C 249.346,112.086 249.513,111.253 251,110.5C 252.609,111.15 254.109,110.65 255.5,109C 255.167,108.667 254.833,108.333 254.5,108C 255.253,106.513 256.086,106.346 257,107.5C 258.833,106.333 260.667,105.167 262.5,104C 262.381,102.719 262.881,101.552 264,100.5C 264.414,100.957 264.914,101.291 265.5,101.5C 269.058,99.9811 271.891,97.6478 274,94.5C 274.414,94.9574 274.914,95.2907 275.5,95.5C 283.143,91.7666 290.31,88.1 297,84.5C 299.412,85.4748 301.412,84.8081 303,82.5C 304.903,82.6938 306.737,82.6938 308.5,82.5C 309.192,81.9747 309.692,81.3081 310,80.5C 311.714,81.9255 313.047,81.5922 314,79.5C 315.938,80.8602 317.604,80.5268 319,78.5C 322.13,78.9087 325.13,78.9087 328,78.5C 329.711,78.5607 331.044,77.8941 332,76.5C 342,77.8333 352,77.8333 362,76.5C 362.674,77.5784 363.674,78.2451 365,78.5C 368.419,79.4451 371.752,79.4451 375,78.5C 375.953,80.5922 377.286,80.9255 379,79.5C 382.866,81.7303 386.699,83.0636 390.5,83.5 Z"/></g>
<g><path style="opacity:0.994" fill="#0e7934" d="M 361.5,95.5 C 351.708,100.564 342.041,105.897 332.5,111.5C 330.595,111.407 328.762,111.074 327,110.5C 325.212,111.358 323.378,112.358 321.5,113.5C 320.284,112.998 319.117,112.665 318,112.5C 316.47,113.636 315.137,114.636 314,115.5C 312.475,115.888 310.808,115.888 309,115.5C 306.834,117.33 304.001,118.997 300.5,120.5C 299.158,119.098 298.324,119.431 298,121.5C 296.984,120.366 296.317,120.699 296,122.5C 295,122.5 294,122.5 293,122.5C 292.424,125.124 291.09,125.791 289,124.5C 288.085,125.328 287.419,126.328 287,127.5C 286.667,127.167 286.333,126.833 286,126.5C 283.114,128.634 280.447,130.968 278,133.5C 277.086,132.346 276.253,132.513 275.5,134C 275.833,134.333 276.167,134.667 276.5,135C 274.376,136.122 272.543,137.622 271,139.5C 270.086,138.346 269.253,138.513 268.5,140C 269.258,141.364 268.758,142.531 267,143.5C 251.819,157.592 241.319,176.592 235.5,200.5C 229.493,208.839 223.493,217.172 217.5,225.5C 216.761,225.631 216.094,225.464 215.5,225C 217.147,219.206 218.147,213.206 218.5,207C 223.438,166.892 244.104,135.225 280.5,112C 306.273,97.3464 333.273,91.8464 361.5,95.5 Z"/></g>
<g><path style="opacity:0.985" fill="#fe9701" d="M 411.5,92.5 C 518.737,96.8746 609.57,137.541 684,214.5C 716.272,249.688 739.272,290.354 753,336.5C 766.879,384.552 764.879,431.885 747,478.5C 724.681,527.151 688.848,561.985 639.5,583C 625.958,589.292 611.958,593.959 597.5,597C 659.521,539.596 682.354,469.096 666,385.5C 657.132,343.775 642.132,304.442 621,267.5C 590.14,214.63 550.64,169.13 502.5,131C 483.796,117.145 463.462,106.145 441.5,98C 431.698,94.9778 421.698,93.1445 411.5,92.5 Z"/></g>
<g><path style="opacity:0.986" fill="#0d7f37" d="M 332.5,111.5 C 305.821,129.326 281.321,149.992 259,173.5C 251.302,182.693 243.468,191.693 235.5,200.5C 241.319,176.592 251.819,157.592 267,143.5C 268.758,142.531 269.258,141.364 268.5,140C 269.253,138.513 270.086,138.346 271,139.5C 272.543,137.622 274.376,136.122 276.5,135C 276.167,134.667 275.833,134.333 275.5,134C 276.253,132.513 277.086,132.346 278,133.5C 280.447,130.968 283.114,128.634 286,126.5C 286.333,126.833 286.667,127.167 287,127.5C 287.419,126.328 288.085,125.328 289,124.5C 291.09,125.791 292.424,125.124 293,122.5C 294,122.5 295,122.5 296,122.5C 296.317,120.699 296.984,120.366 298,121.5C 298.324,119.431 299.158,119.098 300.5,120.5C 304.001,118.997 306.834,117.33 309,115.5C 310.808,115.888 312.475,115.888 314,115.5C 315.137,114.636 316.47,113.636 318,112.5C 319.117,112.665 320.284,112.998 321.5,113.5C 323.378,112.358 325.212,111.358 327,110.5C 328.762,111.074 330.595,111.407 332.5,111.5 Z"/></g>
<g><path style="opacity:0.987" fill="#388dd3" d="M 102.5,228.5 C 101.778,228.918 101.278,229.584 101,230.5C 100.667,229.833 100.333,229.167 100,228.5C 97.3789,230.118 95.0455,232.118 93,234.5C 92.6667,233.833 92.3333,233.167 92,232.5C 91,233.833 90,235.167 89,236.5C 88.195,234.099 87.3617,234.266 86.5,237C 83.9942,238.509 81.4942,240.009 79,241.5C 78.6667,241.167 78.3333,240.833 78,240.5C 77.0196,242.259 76.353,243.926 76,245.5C 75.586,245.043 75.086,244.709 74.5,244.5C 74.7036,245.529 74.2036,246.529 73,247.5C 70.2978,246.359 68.6311,247.359 68,250.5C 67.6667,250.167 67.3333,249.833 67,249.5C 41.2486,270.411 21.7486,297.411 8.5,330.5C 8.70931,331.086 9.04265,331.586 9.5,332C 6.48189,334.53 5.81523,337.196 7.5,340C 6.02674,340.71 5.36007,341.876 5.5,343.5C 3.7839,343.629 2.11723,343.962 0.5,344.5C -1.66716,264.975 30.9995,204.809 98.5,164C 119.35,152.491 141.184,143.325 164,136.5C 164.667,137.167 164.667,137.833 164,138.5C 136.158,163.504 115.658,193.504 102.5,228.5 Z"/></g>
<g><path style="opacity:0.992" fill="#126025" d="M 176.5,144.5 C 176.804,145.15 177.137,145.817 177.5,146.5C 173.375,156.398 169.375,166.231 165.5,176C 165.833,177 166.167,178 166.5,179C 165.327,184.254 163.66,189.254 161.5,194C 161.833,195.667 162.167,197.333 162.5,199C 161.119,207.223 160.452,215.556 160.5,224C 160.328,245.32 163.662,264.986 170.5,283C 170.167,283.333 169.833,283.667 169.5,284C 171.017,286.204 172.35,288.538 173.5,291C 173.167,291.333 172.833,291.667 172.5,292C 173.733,293.667 175.067,295.167 176.5,296.5C 173.736,303.684 170.736,310.684 167.5,317.5C 164.966,313.608 162.3,309.775 159.5,306C 160.634,304.984 160.301,304.317 158.5,304C 158.957,303.586 159.291,303.086 159.5,302.5C 158.159,298.866 156.492,296.033 154.5,294C 154.957,293.586 155.291,293.086 155.5,292.5C 153.927,289.029 152.261,285.529 150.5,282C 151.022,281.439 151.355,280.772 151.5,280C 150.643,278.032 149.643,276.032 148.5,274C 149.925,272.286 149.592,270.953 147.5,270C 148.925,268.286 148.592,266.953 146.5,266C 147.059,265.275 147.392,264.442 147.5,263.5C 146.691,260.37 145.691,257.203 144.5,254C 146.032,251.67 145.698,249.67 143.5,248C 144.326,245.158 144.66,242.158 144.5,239C 143.934,238.005 143.267,237.172 142.5,236.5C 149.307,204.069 160.641,173.402 176.5,144.5 Z"/></g>
<g><path style="opacity:0.985" fill="#125922" d="M 142.5,236.5 C 143.267,237.172 143.934,238.005 144.5,239C 144.66,242.158 144.326,245.158 143.5,248C 145.698,249.67 146.032,251.67 144.5,254C 145.691,257.203 146.691,260.37 147.5,263.5C 147.392,264.442 147.059,265.275 146.5,266C 148.592,266.953 148.925,268.286 147.5,270C 149.592,270.953 149.925,272.286 148.5,274C 149.643,276.032 150.643,278.032 151.5,280C 151.355,280.772 151.022,281.439 150.5,282C 152.261,285.529 153.927,289.029 155.5,292.5C 155.291,293.086 154.957,293.586 154.5,294C 156.492,296.033 158.159,298.866 159.5,302.5C 159.291,303.086 158.957,303.586 158.5,304C 160.301,304.317 160.634,304.984 159.5,306C 162.3,309.775 164.966,313.608 167.5,317.5C 158.251,341.752 151.751,366.752 148,392.5C 145.381,411.19 146.881,429.523 152.5,447.5C 152.154,448.696 151.654,448.696 151,447.5C 130.364,377.801 127.531,307.467 142.5,236.5 Z"/></g>
<g><path style="opacity:0.991" fill="#3a92d3" d="M 102.5,228.5 C 99.0208,241.415 96.0208,254.415 93.5,267.5C 77.9598,277.877 65.2932,290.377 55.5,305C 51.1368,311.354 46.8034,317.688 42.5,324C 42.9574,324.414 43.2907,324.914 43.5,325.5C 40.1775,332.121 37.1775,338.287 34.5,344C 34.9574,344.414 35.2907,344.914 35.5,345.5C 34.683,348.664 33.3496,351.497 31.5,354C 31.6651,355.117 31.9984,356.284 32.5,357.5C 31.6868,361.074 30.6868,364.574 29.5,368C 30.6341,369.016 30.3008,369.683 28.5,370C 29.2142,372.191 29.5475,374.524 29.5,377C 28.8333,378 28.1667,379 27.5,380C 28.7224,387.057 28.7224,393.723 27.5,400C 31.7979,438.27 48.1313,471.27 76.5,499C 109.045,527.572 146.712,539.739 189.5,535.5C 196.138,543.141 202.804,550.808 209.5,558.5C 207.624,560.272 207.29,562.105 208.5,564C 208,564.167 207.5,564.333 207,564.5C 203.941,565.649 200.941,565.649 198,564.5C 196.874,565.944 195.374,566.61 193.5,566.5C 191.395,565.986 189.561,565.653 188,565.5C 186,566.167 184,566.833 182,567.5C 178.667,566.167 175.333,566.167 172,567.5C 166.364,565.874 161.364,565.54 157,566.5C 156.333,565.833 155.667,565.167 155,564.5C 153.333,564.833 151.667,565.167 150,565.5C 149.667,564.833 149.333,564.167 149,563.5C 146.333,563.5 143.667,563.5 141,563.5C 140.333,562.833 139.667,562.167 139,561.5C 137.883,561.665 136.716,561.998 135.5,562.5C 134.808,561.975 134.308,561.308 134,560.5C 131.91,561.152 129.743,561.319 127.5,561C 128.171,561.986 128.171,563.153 127.5,564.5C 71.7862,522.777 32.9528,468.777 11,402.5C 5.50125,383.508 2.00125,364.175 0.5,344.5C 2.11723,343.962 3.7839,343.629 5.5,343.5C 5.36007,341.876 6.02674,340.71 7.5,340C 5.81523,337.196 6.48189,334.53 9.5,332C 9.04265,331.586 8.70931,331.086 8.5,330.5C 21.7486,297.411 41.2486,270.411 67,249.5C 67.3333,249.833 67.6667,250.167 68,250.5C 68.6311,247.359 70.2978,246.359 73,247.5C 74.2036,246.529 74.7036,245.529 74.5,244.5C 75.086,244.709 75.586,245.043 76,245.5C 76.353,243.926 77.0196,242.259 78,240.5C 78.3333,240.833 78.6667,241.167 79,241.5C 81.4942,240.009 83.9942,238.509 86.5,237C 87.3617,234.266 88.195,234.099 89,236.5C 90,235.167 91,233.833 92,232.5C 92.3333,233.167 92.6667,233.833 93,234.5C 95.0455,232.118 97.3789,230.118 100,228.5C 100.333,229.167 100.667,229.833 101,230.5C 101.278,229.584 101.778,228.918 102.5,228.5 Z"/></g>
<g><path style="opacity:0.999" fill="#3c94d4" d="M 93.5,267.5 C 92.5964,278.484 91.9298,289.484 91.5,300.5C 90.8826,300.389 90.3826,300.056 90,299.5C 82.7046,308.054 75.8713,316.221 69.5,324C 70.6341,325.016 70.3008,325.683 68.5,326C 68.8333,326.333 69.1667,326.667 69.5,327C 68.6919,327.308 68.0253,327.808 67.5,328.5C 63.8247,336.874 60.158,344.707 56.5,352C 56.6938,353.903 56.6938,355.737 56.5,357.5C 55.595,359.638 54.595,361.805 53.5,364C 54.9255,365.714 54.5922,367.047 52.5,368C 53.0362,369.744 53.3696,371.577 53.5,373.5C 53.0233,374.478 52.3567,375.311 51.5,376C 52.8333,385.333 52.8333,394.667 51.5,404C 52.428,404.388 53.0946,405.055 53.5,406C 53.4754,409.321 53.4754,412.654 53.5,416C 59.5468,437.178 70.3801,457.012 86,475.5C 107.973,497.401 134.473,510.068 165.5,513.5C 167.64,513.444 169.306,512.777 170.5,511.5C 176.803,519.476 183.136,527.476 189.5,535.5C 146.712,539.739 109.045,527.572 76.5,499C 48.1313,471.27 31.7979,438.27 27.5,400C 28.7224,393.723 28.7224,387.057 27.5,380C 28.1667,379 28.8333,378 29.5,377C 29.5475,374.524 29.2142,372.191 28.5,370C 30.3008,369.683 30.6341,369.016 29.5,368C 30.6868,364.574 31.6868,361.074 32.5,357.5C 31.9984,356.284 31.6651,355.117 31.5,354C 33.3496,351.497 34.683,348.664 35.5,345.5C 35.2907,344.914 34.9574,344.414 34.5,344C 37.1775,338.287 40.1775,332.121 43.5,325.5C 43.2907,324.914 42.9574,324.414 42.5,324C 46.8034,317.688 51.1368,311.354 55.5,305C 65.2932,290.377 77.9598,277.877 93.5,267.5 Z"/></g>
<g><path style="opacity:0.997" fill="#3d98d5" d="M 91.5,300.5 C 93.1756,345.202 103.342,387.868 122,428.5C 135.655,457.836 151.822,485.503 170.5,511.5C 169.306,512.777 167.64,513.444 165.5,513.5C 134.473,510.068 107.973,497.401 86,475.5C 70.3801,457.012 59.5468,437.178 53.5,416C 53.4754,412.654 53.4754,409.321 53.5,406C 53.0946,405.055 52.428,404.388 51.5,404C 52.8333,394.667 52.8333,385.333 51.5,376C 52.3567,375.311 53.0233,374.478 53.5,373.5C 53.3696,371.577 53.0362,369.744 52.5,368C 54.5922,367.047 54.9255,365.714 53.5,364C 54.595,361.805 55.595,359.638 56.5,357.5C 56.6938,355.737 56.6938,353.903 56.5,352C 60.158,344.707 63.8247,336.874 67.5,328.5C 68.0253,327.808 68.6919,327.308 69.5,327C 69.1667,326.667 68.8333,326.333 68.5,326C 70.3008,325.683 70.6341,325.016 69.5,324C 75.8713,316.221 82.7046,308.054 90,299.5C 90.3826,300.056 90.8826,300.389 91.5,300.5 Z"/></g>
<g><path style="opacity:0.975" fill="#2d5893" d="M 624.5,475.5 C 621.872,474.745 621.205,473.245 622.5,471C 616.971,448.916 608.971,427.749 598.5,407.5C 605.606,387.678 610.773,367.345 614,346.5C 616.725,326.213 615.725,306.213 611,286.5C 629.903,348.479 634.403,411.479 624.5,475.5 Z"/></g>
<g><path style="opacity:0.997" fill="#29639e" d="M 598.5,407.5 C 608.971,427.749 616.971,448.916 622.5,471C 621.205,473.245 621.872,474.745 624.5,475.5C 613.6,545.789 584.434,607.122 537,659.5C 530.054,667.013 522.554,673.68 514.5,679.5C 447.781,714.915 381.114,714.081 314.5,677C 307.076,672.3 300.076,667.134 293.5,661.5C 302.167,661.5 310.833,661.5 319.5,661.5C 328.388,665.578 336.888,670.244 345,675.5C 346.998,674.729 348.665,675.395 350,677.5C 418.053,699.753 478.886,689.253 532.5,646C 583.755,598.237 602.922,540.07 590,471.5C 588.066,463.932 585.9,456.432 583.5,449C 583.164,447.97 582.497,447.47 581.5,447.5C 587.206,434.099 592.873,420.765 598.5,407.5 Z"/></g>
<g><path style="opacity:0.999" fill="#2768a4" d="M 581.5,447.5 C 582.497,447.47 583.164,447.97 583.5,449C 585.9,456.432 588.066,463.932 590,471.5C 602.922,540.07 583.755,598.237 532.5,646C 478.886,689.253 418.053,699.753 350,677.5C 348.665,675.395 346.998,674.729 345,675.5C 336.888,670.244 328.388,665.578 319.5,661.5C 326.372,660.565 333.372,659.565 340.5,658.5C 340.804,659.15 341.137,659.817 341.5,660.5C 374.486,676.539 409.82,681.205 447.5,674.5C 448.442,674.608 449.275,674.941 450,675.5C 454.288,673.528 458.788,671.861 463.5,670.5C 474.336,667.571 485.336,663.071 496.5,657C 494.099,656.195 494.266,655.362 497,654.5C 497.333,655.167 497.667,655.833 498,656.5C 500.202,655.087 502.368,653.587 504.5,652C 505.833,651.333 505.833,650.667 504.5,650C 507.274,648.219 510.274,646.885 513.5,646C 512.939,644.434 513.606,643.101 515.5,642C 521.043,641.282 525.043,638.449 527.5,633.5C 528.795,632.902 530.128,632.402 531.5,632C 532.333,629.833 533.833,628.333 536,627.5C 536.219,626.062 536.719,624.729 537.5,623.5C 540.206,621.749 542.706,619.749 545,617.5C 547,614.833 549,612.167 551,609.5C 551.29,607.048 551.956,604.715 553,602.5C 555.231,599.719 557.231,596.719 559,593.5C 559.333,594.167 559.667,594.833 560,595.5C 564.422,588.333 567.422,580.666 569,572.5C 570.28,566.737 572.78,562.237 576.5,559C 575.572,558.612 574.905,557.945 574.5,557C 574.763,554.568 575.763,552.568 577.5,551C 576.039,548.547 576.706,546.214 579.5,544C 577.995,541.088 578.662,538.755 581.5,537C 580.342,535.991 579.675,534.658 579.5,533C 580.004,527.596 580.671,522.262 581.5,517C 581.167,516.667 580.833,516.333 580.5,516C 580.877,512.087 581.877,508.42 583.5,505C 582.262,497.912 580.595,490.912 578.5,484C 578.833,482.333 579.167,480.667 579.5,479C 578.484,478.481 577.818,477.647 577.5,476.5C 576.754,472.435 575.754,468.435 574.5,464.5C 574.818,463.353 575.484,462.519 576.5,462C 575.748,461.329 575.414,460.496 575.5,459.5C 576.992,455.182 578.992,451.182 581.5,447.5 Z"/></g>
<g><path style="opacity:0.998" fill="#246eab" d="M 575.5,459.5 C 575.414,460.496 575.748,461.329 576.5,462C 575.484,462.519 574.818,463.353 574.5,464.5C 575.754,468.435 576.754,472.435 577.5,476.5C 577.818,477.647 578.484,478.481 579.5,479C 579.167,480.667 578.833,482.333 578.5,484C 580.595,490.912 582.262,497.912 583.5,505C 581.877,508.42 580.877,512.087 580.5,516C 580.833,516.333 581.167,516.667 581.5,517C 580.671,522.262 580.004,527.596 579.5,533C 579.675,534.658 580.342,535.991 581.5,537C 578.662,538.755 577.995,541.088 579.5,544C 576.706,546.214 576.039,548.547 577.5,551C 575.763,552.568 574.763,554.568 574.5,557C 574.905,557.945 575.572,558.612 576.5,559C 572.78,562.237 570.28,566.737 569,572.5C 567.422,580.666 564.422,588.333 560,595.5C 559.667,594.833 559.333,594.167 559,593.5C 557.231,596.719 555.231,599.719 553,602.5C 551.956,604.715 551.29,607.048 551,609.5C 549,612.167 547,614.833 545,617.5C 542.706,619.749 540.206,621.749 537.5,623.5C 536.719,624.729 536.219,626.062 536,627.5C 533.833,628.333 532.333,629.833 531.5,632C 530.128,632.402 528.795,632.902 527.5,633.5C 525.043,638.449 521.043,641.282 515.5,642C 513.606,643.101 512.939,644.434 513.5,646C 510.274,646.885 507.274,648.219 504.5,650C 505.833,650.667 505.833,651.333 504.5,652C 502.368,653.587 500.202,655.087 498,656.5C 497.667,655.833 497.333,655.167 497,654.5C 494.266,655.362 494.099,656.195 496.5,657C 485.336,663.071 474.336,667.571 463.5,670.5C 458.788,671.861 454.288,673.528 450,675.5C 449.275,674.941 448.442,674.608 447.5,674.5C 409.82,681.205 374.486,676.539 341.5,660.5C 341.137,659.817 340.804,659.15 340.5,658.5C 350.009,656.79 359.342,654.456 368.5,651.5C 432.773,669.797 487.44,654.297 532.5,605C 532.167,604.667 531.833,604.333 531.5,604C 543.635,589.721 552.301,573.721 557.5,556C 565.446,531.926 567.113,508.592 562.5,486C 563.712,484.893 563.379,484.393 561.5,484.5C 565.917,475.997 570.583,467.664 575.5,459.5 Z"/></g>
<g><path style="opacity:0.997" fill="#2274b1" d="M 561.5,484.5 C 563.379,484.393 563.712,484.893 562.5,486C 567.113,508.592 565.446,531.926 557.5,556C 552.301,573.721 543.635,589.721 531.5,604C 531.833,604.333 532.167,604.667 532.5,605C 487.44,654.297 432.773,669.797 368.5,651.5C 376.91,648.697 385.243,645.697 393.5,642.5C 438.287,649.738 477.287,637.904 510.5,607C 527.602,588.961 539.935,568.295 547.5,545C 546.075,543.286 546.408,541.953 548.5,541C 548.669,538.624 548.669,536.291 548.5,534C 548.755,532.674 549.422,531.674 550.5,531C 550.483,522.36 550.15,512.86 549.5,502.5C 553.141,496.205 557.141,490.205 561.5,484.5 Z"/></g>
<g><path style="opacity:0.996" fill="#1e7ab8" d="M 549.5,502.5 C 550.15,512.86 550.483,522.36 550.5,531C 549.422,531.674 548.755,532.674 548.5,534C 548.669,536.291 548.669,538.624 548.5,541C 546.408,541.953 546.075,543.286 547.5,545C 539.935,568.295 527.602,588.961 510.5,607C 477.287,637.904 438.287,649.738 393.5,642.5C 405.084,637.041 416.417,631.041 427.5,624.5C 465.936,620.96 495.436,602.626 516,569.5C 523.1,557.022 527.6,544.022 529.5,530.5C 536.179,521.129 542.846,511.796 549.5,502.5 Z"/></g>
<g><path style="opacity:0.986" fill="#1b81bf" d="M 529.5,530.5 C 527.6,544.022 523.1,557.022 516,569.5C 495.436,602.626 465.936,620.96 427.5,624.5C 466.838,599.17 500.838,567.837 529.5,530.5 Z"/></g>
<g><path style="opacity:0.979" fill="#388cd2" d="M 209.5,558.5 C 230.582,580.092 253.582,599.259 278.5,616C 302.453,630.56 325.12,639.394 346.5,642.5C 265.714,637.467 192.714,611.467 127.5,564.5C 128.171,563.153 128.171,561.986 127.5,561C 129.743,561.319 131.91,561.152 134,560.5C 134.308,561.308 134.808,561.975 135.5,562.5C 136.716,561.998 137.883,561.665 139,561.5C 139.667,562.167 140.333,562.833 141,563.5C 143.667,563.5 146.333,563.5 149,563.5C 149.333,564.167 149.667,564.833 150,565.5C 151.667,565.167 153.333,564.833 155,564.5C 155.667,565.167 156.333,565.833 157,566.5C 161.364,565.54 166.364,565.874 172,567.5C 175.333,566.167 178.667,566.167 182,567.5C 184,566.833 186,566.167 188,565.5C 189.561,565.653 191.395,565.986 193.5,566.5C 195.374,566.61 196.874,565.944 198,564.5C 200.941,565.649 203.941,565.649 207,564.5C 207.5,564.333 208,564.167 208.5,564C 207.29,562.105 207.624,560.272 209.5,558.5 Z"/></g>
<g><path style="opacity:0.989" fill="#2d5893" d="M 267.5,657.5 C 313.44,702.544 368.773,723.044 433.5,719C 441.483,717.931 449.483,717.097 457.5,716.5C 438.691,725.325 419.024,731.325 398.5,734.5C 382.833,734.5 367.167,734.5 351.5,734.5C 310.125,727.979 274.125,710.479 243.5,682C 228.151,667.494 214.484,651.661 202.5,634.5C 202.833,634.167 203.167,633.833 203.5,633.5C 223.588,644.862 244.922,652.862 267.5,657.5 Z"/></g>
<g><path style="opacity:0.995" fill="#2a5d99" d="M 267.5,657.5 C 276.272,659.009 284.938,660.343 293.5,661.5C 300.076,667.134 307.076,672.3 314.5,677C 381.114,714.081 447.781,714.915 514.5,679.5C 497.724,695.067 478.724,707.401 457.5,716.5C 449.483,717.097 441.483,717.931 433.5,719C 368.773,723.044 313.44,702.544 267.5,657.5 Z"/></g>
</svg>
